<?xml version="1.0" encoding="UTF-8"?><svg id="Layer_2" xmlns="http://www.w3.org/2000/svg" width="35.4" height="50" viewBox="0 0 35.4 50"><g id="Layer_1-2"><g><path d="m0,9.82l3.22,36.16,14.46,4.02,14.5-4.02,3.23-36.16H0Zm28.33,12.55l-.33,3.82-.11,1.19-1.04,11.67-.07.74-9.07,2.51h-.02s0,0,0,0l-9.07-2.52-.62-6.96h4.45l.32,3.53,4.94,1.33h.02l4.92-1.33.52-5.76H7.78l-.39-4.43h16.14l.4-4.54H6.99l-.4-4.44h22.2l-.47,5.15Z" style="fill:#858585;"/><path d="m26.58,1.95V0h-5.37v4.4h3.13v.39h-3.13v2.05h5.37V2.34h-3.12v-.39h3.12Zm-6.44,0V0h-5.37v4.4h3.13v.39h-3.13v2.05h5.37V2.34h-3.13v-.39h3.13Zm-9.56,2.54v-2.24h3.12V0h-5.37v6.73h5.38v-2.24h-3.13Z" style="fill:#858585;"/></g></g></svg>
