<?xml version="1.0" encoding="UTF-8"?><svg id="Layer_2" xmlns="http://www.w3.org/2000/svg" width="86.05" height="19.2" viewBox="0 0 86.05 19.2"><g id="Layer_1-2"><path d="m26.69,19.2V.38h1.02v2.96c.12-.13.23-.27.33-.42C28.9,1.15,30.7.03,32.66.06c2.33-.07,4.22.79,5.33,2.86,1.44,2.61,1.52,5.76.22,8.44-1.04,2.32-3.59,3.48-6.33,3.05-1.73-.15-3.27-1.16-4.09-2.7v7.49h-1.1Zm1.02-12.17l.23,2.21c.4,2.52,1.89,4,4.23,4.28,2.26.37,4.47-.91,5.28-3.05.91-2.16.84-4.62-.18-6.73-.86-1.92-2.88-3.03-4.96-2.74-1.95.14-3.59,1.5-4.09,3.39-.22.87-.38,1.75-.5,2.64h0Zm32.27,2.56c-.32,2.74-2.62,4.82-5.38,4.87-4.28.22-6.29-2.63-6.61-5.91-.22-1.78.07-3.59.83-5.21,1.1-2.29,3.55-3.6,6.06-3.25,2.38.2,4.37,1.91,4.94,4.23.22,1.03.38,2.08.48,3.13h-11.25c-.21,2.98,1.39,5.37,3.66,5.94,2.82.69,5.24-.53,6.11-3.21.19-.69.55-.79,1.17-.59h0Zm-10.94-3.09h10.06c-.06-3.17-2.04-5.47-4.71-5.5-3.02-.05-5.21,2.16-5.35,5.5Zm13.02,3.16h.99c.07,1.48.97,2.8,2.32,3.41,1.69.76,3.63.71,5.27-.14.91-.41,1.46-1.34,1.39-2.33.05-.96-.54-1.84-1.45-2.15-1.08-.4-2.24-.63-3.34-.98-1.15-.33-2.27-.74-3.37-1.23-1.78-.87-1.89-4.25.12-5.33,2.1-1.18,4.65-1.22,6.79-.1,1.3.72,2.02,2.17,1.81,3.64h-.85s-.08-.08-.08-.12c-.1-2.7-2.37-3.54-4.8-3.3-.74.08-1.43.3-2.09.63-.81.37-1.29,1.2-1.21,2.09,0,.88.56,1.67,1.39,1.96,1.06.39,2.19.64,3.29.95l2.66.69c1.24.41,2.09,1.53,2.16,2.83.21,1.43-.51,2.83-1.8,3.48-2.32,1.31-6.15.97-7.85-.69-.87-.88-1.36-2.07-1.35-3.3h0Zm23.51-5.21h-.92c0-.12-.05-.25-.06-.34-.03-1.43-1.06-2.64-2.46-2.91-1.29-.37-2.66-.3-3.9.19-1.01.29-1.71,1.21-1.72,2.26-.04,1.04.66,1.95,1.67,2.2l4.23,1.08c.46.11.91.25,1.35.41,1.35.49,2.26,1.74,2.3,3.17.04,1.43-.8,2.74-2.12,3.3-1.98.9-4.26.92-6.26.06-1.67-.72-2.71-2.4-2.61-4.21h.9c.34,1.64,1.46,3,3.01,3.65,1.54.65,3.31.49,4.71-.42.86-.45,1.38-1.35,1.33-2.32.04-.96-.56-1.83-1.47-2.13-1.08-.4-2.24-.62-3.34-.98-1.16-.32-2.29-.73-3.39-1.22-1.74-.86-1.88-4.21.1-5.28,2.13-1.23,4.74-1.26,6.9-.08,1.24.74,1.92,2.14,1.75,3.57h0ZM25.01,14.12c-.75.28-1.6-.04-1.97-.75l-3.59-4.97-.52-.69-4.17,5.67c-.35.68-1.16,1-1.88.74l5.37-7.21L13.24.39c.74-.27,1.57.02,1.98.69l3.73,5.03,3.75-5.01c.35-.67,1.16-.97,1.86-.7l-1.94,2.57-2.63,3.42c-.29.26-.31.69-.06.98.02.02.04.04.06.06l5.01,6.68h.01ZM47.83.32v.98c-2.78-.18-5.18,1.92-5.36,4.7-.01.17-.01.34,0,.51,0,2.29,0,4.58,0,6.87v.78h-.99V.38h.98v2.82c1.2-2.06,3.06-2.82,5.39-2.88h0ZM0,6.82l.44-2.16C1.64.38,6.54-1.4,9.92,1.25c1.97,1.55,2.47,3.75,2.37,6.22H1.16c-.18,4.42,3.01,7.09,7.09,5.73,1.34-.49,2.36-1.61,2.69-3,.22-.69.57-.81,1.22-.61-.22,1.72-1.21,3.23-2.7,4.12-2.48,1.36-5.55.96-7.61-.97-.99-1.12-1.59-2.53-1.71-4.02,0-.25-.08-.47-.14-.69,0-.41,0-.82,0-1.21h0Zm1.17-.3h10.06c-.06-3.2-2.09-5.48-4.78-5.5-3-.04-5.15,2.18-5.28,5.49h0Z" style="fill:#858585;"/></g></svg>