<?xml version="1.0" encoding="UTF-8"?><svg id="Layer_2" xmlns="http://www.w3.org/2000/svg" width="35.41" height="50.25" viewBox="0 0 35.41 50.25"><g id="Layer_1-2"><g><path d="m0,10.07l3.22,36.16,14.47,4.02,14.51-4.02,3.22-36.16H0Zm28.7,8.59l-.2,2.25-.09,1H11.43l.41,4.54h16.16l-.11,1.19-1.04,11.67-.07.74-9.07,2.51h-.02s0,0,0,0l-9.08-2.52-.62-6.96h4.46l.32,3.53,4.93,1.33h.03l4.93-1.33.51-5.76H7.79l-1.09-12.21-.11-1.19h22.21l-.1,1.19Z" style="fill:#858585;"/><g><polygon points="17.06 .25 17.06 2.48 15.08 2.48 15.08 7 12.82 7 12.82 2.48 10.84 2.48 10.84 .25 17.06 .25" style="fill:#858585;"/><polygon points="9.86 .25 9.86 7 7.61 7 7.61 4.74 5.55 4.74 5.55 7 3.3 7 3.3 .25 5.55 .25 5.55 2.47 7.61 2.47 7.61 .25 9.86 .25" style="fill:#858585;"/></g><path d="m18.05.25h2.35l1.45,2.37,1.44-2.37h2.35v6.74h-2.24v-3.34l-1.55,2.4h-.04l-1.55-2.4v3.34h-2.2V.25Z" style="fill:#858585;"/><path d="m26.76.25h2.25v4.51h3.17v2.23h-5.42V.25Z" style="fill:#858585;"/></g></g></svg>