<?xml version="1.0" encoding="UTF-8"?><svg id="Layer_2" xmlns="http://www.w3.org/2000/svg" width="40.72" height="40.71" viewBox="0 0 40.72 40.71"><g id="Layer_1-2"><path d="m0,0v40.71h40.72V0H0Zm22.16,31.75c0,3.96-2.33,5.77-5.71,5.77-3.06,0-4.84-1.58-5.74-3.5l3.12-1.88c.6,1.06,1.14,1.96,2.46,1.96s2.05-.49,2.05-2.4v-13.01h3.83v13.06Zm9.04,5.77c-3.55,0-5.84-1.69-6.97-3.91l3.12-1.8c.82,1.34,1.89,2.33,3.77,2.33,1.59,0,2.6-.79,2.6-1.89,0-1.31-1.04-1.78-2.79-2.54l-.96-.41c-2.76-1.17-4.59-2.65-4.59-5.77,0-2.87,2.19-5.05,5.6-5.05,2.43,0,4.18.85,5.43,3.06l-2.98,1.91c-.65-1.17-1.37-1.64-2.46-1.64s-1.83.72-1.83,1.64c0,1.15.71,1.62,2.35,2.33l.95.41c3.26,1.4,5.09,2.82,5.09,6.01,0,3.45-2.71,5.33-6.34,5.33Z" style="fill:#858585;"/></g></svg>