<?xml version="1.0" encoding="UTF-8"?><svg id="Layer_2" xmlns="http://www.w3.org/2000/svg" width="123.42" height="31.16" viewBox="0 0 123.42 31.16"><g id="Layer_1-2"><path d="m9.24,3.2C8.03,1.76,7,.32,6.77.02c-.02-.02-.06-.02-.08,0-.21.31-1.25,1.75-2.47,3.19-10.37,13.23,1.62,22.15,1.62,22.15l.1.06c.08,1.38.31,3.35.31,3.35h.91s.23-1.97.31-3.35l.1-.08s12.03-8.91,1.67-22.13Zm-2.51,21.95s-.53-.45-.68-.7v-.02l.66-14.4s.06-.04.06,0l.66,14.4v.02c-.14.25-.7.7-.7.7Zm22.46-2.94l-5-12.22-.02-.04h-3.89v.82h.64c.19,0,.37.08.51.21.14.14.21.31.21.51l-.1,12.3c0,.39-.31.7-.7.7l-.64.02v.8h3.78v-.8l-.39-.02c-.39-.02-.7-.33-.7-.7v-11.58l5.45,13.12c.08.19.27.31.45.31.21,0,.39-.12.45-.31l5.33-12.81.08,11.29c0,.39-.31.7-.7.72h-.41v.8h4.44v-.8h-.6c-.39,0-.7-.33-.7-.7l-.04-12.3c0-.39.31-.7.7-.72l.66-.02v-.82h-3.78l-5.04,12.24Zm34.88,2.1c-.12-.12-.19-.29-.19-.49v-6.05c0-1.15-.33-2.06-1.01-2.69-.66-.64-1.58-.97-2.74-.97-1.6,0-2.88.66-3.76,1.93-.02.02-.04.04-.08.04s-.06-.02-.06-.06l-.41-1.6h-.7l-1.79,1.03v.56h.45c.21,0,.39.06.51.16s.19.29.19.51v7.12c0,.21-.06.37-.19.49s-.29.19-.49.19h-.45v.82h4.11v-.82h-.45c-.21,0-.37-.06-.49-.19s-.19-.29-.19-.49v-4.71c0-.6.14-1.19.39-1.79.27-.58.64-1.05,1.15-1.44.51-.37,1.11-.56,1.81-.56.78,0,1.38.25,1.75.74s.56,1.13.56,1.91v5.84c0,.21-.06.37-.19.49s-.29.19-.49.19h-.45v.82h4.11v-.82h-.45c-.16.02-.33-.04-.45-.16Zm37.58-13.43c-1.13-.6-2.41-.93-3.78-.93h-5.35v.82h.51c.21,0,.37.08.56.27.16.16.25.35.25.56v12.07c0,.21-.08.39-.25.56s-.35.27-.56.27h-.51v.82h5.35c1.38,0,2.63-.31,3.78-.93,1.13-.6,2.06-1.5,2.74-2.65.68-1.15,1.01-2.53,1.01-4.09s-.35-2.94-1.01-4.09c-.68-1.15-1.58-2.06-2.74-2.67Zm1.6,6.75c0,1.44-.25,2.65-.76,3.62-.49.97-1.17,1.71-2,2.18-.82.47-1.75.7-2.72.7h-1.09c-.21,0-.37-.08-.56-.27-.16-.16-.25-.35-.25-.56v-11.37c0-.21.08-.39.25-.56.16-.16.35-.27.56-.27h1.09c.99,0,1.89.23,2.72.7s1.5,1.19,2,2.18c.49.99.76,2.22.76,3.64Zm14.79.82c-.49-.58-1.46-1.05-2.57-1.32,1.54-.78,2.34-1.87,2.34-3.27,0-.76-.21-1.44-.62-2.04-.41-.58-.99-1.05-1.71-1.38-.74-.33-1.58-.49-2.55-.49h-6.07v.82h.47c.21,0,.39.08.56.27.16.16.27.35.27.56v12.07c0,.21-.08.39-.27.56-.16.16-.35.27-.56.27h-.53v.82h6.58c1.01,0,1.93-.16,2.78-.51.84-.33,1.52-.82,2-1.48.49-.66.74-1.44.74-2.37.04-.99-.27-1.83-.86-2.51Zm-7.53,5.43c-.16-.16-.27-.35-.27-.56v-5.41h3.13c1.11,0,1.95.29,2.53.84.58.56.88,1.3.88,2.18,0,.53-.14,1.07-.39,1.54-.27.49-.64.88-1.15,1.19s-1.13.45-1.87.45h-2.3c-.21,0-.37-.06-.56-.25Zm-.25-7.12v-4.81c0-.21.08-.39.27-.56.16-.16.35-.27.56-.27h1.48c1.07,0,1.85.27,2.34.78.49.53.74,1.19.74,2.04s-.23,1.54-.7,2.06c-.45.51-1.15.76-2.08.76h-2.61Zm-61.87-1.93c-.86-.47-1.81-.72-2.86-.72s-2.02.23-2.86.72c-.86.47-1.54,1.15-2.04,2.02-.49.86-.76,1.87-.76,2.98s.25,2.12.76,2.98c.51.86,1.17,1.54,2.04,2.02.86.47,1.81.72,2.86.72s2.02-.23,2.86-.72c.86-.47,1.54-1.15,2.04-2.02.49-.86.76-1.87.76-2.98s-.25-2.12-.76-2.98c-.49-.86-1.17-1.54-2.04-2.02Zm.82,5c0,1.38-.33,2.49-1.01,3.29-.66.8-1.56,1.21-2.67,1.21s-2.02-.41-2.67-1.21c-.68-.8-1.01-1.91-1.01-3.29s.33-2.49,1.01-3.29c.66-.8,1.56-1.21,2.67-1.21s2.02.41,2.67,1.21c.68.8,1.01,1.91,1.01,3.29Zm38.71-5c-.86-.47-1.81-.72-2.86-.72s-2.02.23-2.86.72c-.86.47-1.54,1.15-2.04,2.02-.49.86-.76,1.87-.76,2.98s.25,2.12.76,2.98c.49.86,1.17,1.54,2.04,2.02.86.47,1.81.72,2.86.72s2.02-.23,2.86-.72c.86-.47,1.54-1.15,2.04-2.02.49-.86.76-1.87.76-2.98s-.25-2.12-.76-2.98c-.49-.86-1.19-1.54-2.04-2.02Zm.82,5c0,1.38-.33,2.49-1.01,3.29-.66.8-1.56,1.21-2.67,1.21s-2.02-.41-2.67-1.21c-.68-.8-1.01-1.91-1.01-3.29s.33-2.49,1.01-3.29c.66-.8,1.56-1.21,2.67-1.21s2.02.41,2.67,1.21,1.01,1.91,1.01,3.29Zm-16.76-5.72c-.91,0-1.73.19-2.47.58s-1.32.91-1.75,1.56c-.41.66-.64,1.38-.64,2.16,0,.7.16,1.34.47,1.91.31.56.74,1.01,1.28,1.4l-1.6,2.18c-.21.27-.23.64-.08.93.16.31.45.47.78.47h.45c-.45.31-.8.66-1.05,1.09-.29.47-.43.99-.43,1.5,0,.97.43,1.77,1.28,2.37.82.6,2,.91,3.48.91,1.03,0,2-.16,2.88-.49.91-.33,1.62-.8,2.16-1.44.56-.64.82-1.4.82-2.26,0-.93-.33-1.56-1.13-2.2-.68-.53-1.73-.8-3.04-.8h-4.48s-.02-.02-.02-.02c0,0-.02-.02,0-.04l1.17-1.56c.31.14.6.23.86.29.27.06.58.08.91.08.95,0,1.79-.19,2.53-.58.74-.39,1.34-.91,1.77-1.56s.64-1.38.64-2.16c0-.82-.41-2.34-1.5-3.13,0-.02.02-.02.02-.02l2.41.27v-1.11h-3.87c-.56-.19-1.17-.31-1.83-.31Zm1.34,7.03c-.43.23-.88.35-1.36.35-.76,0-1.42-.27-1.97-.8s-.84-1.3-.84-2.28.29-1.77.84-2.28c.56-.53,1.23-.8,1.97-.8.47,0,.93.1,1.36.35.43.23.78.58,1.05,1.03.27.45.41,1.03.41,1.71s-.14,1.25-.41,1.71c-.25.45-.62.8-1.05,1.03Zm-3.04,4.13h3.04c.84,0,1.38.16,1.75.53.35.35.53.84.53,1.4,0,.82-.33,1.5-.99,2-.66.51-1.52.76-2.61.76-.95,0-1.73-.21-2.3-.62-.58-.41-.86-1.03-.86-1.81,0-.49.14-.95.41-1.36.29-.41.62-.7,1.03-.91Zm50.95-.14c-.23-.12-.39-.29-.51-.51s-.19-.45-.19-.7.06-.49.19-.7c.12-.23.31-.39.51-.51.23-.12.47-.19.74-.19.29,0,.51.06.74.19s.39.29.51.51.19.45.19.7-.06.49-.19.7c-.12.23-.31.39-.51.51-.23.12-.47.19-.74.19s-.51-.06-.74-.19Zm1.36-.16c.19-.1.33-.25.43-.43s.16-.39.16-.64c0-.23-.06-.43-.16-.64-.1-.19-.25-.33-.43-.43-.19-.1-.39-.16-.62-.16s-.43.06-.62.16-.33.25-.43.43-.16.39-.16.64c0,.23.06.43.16.64.1.19.25.33.43.43.19.1.39.16.62.16.25,0,.45-.06.62-.16Zm-1.21-.39v-.1l.02-.02h.06s.04-.02.06-.02c.02-.02.02-.04.02-.06v-1.03s-.02-.04-.02-.06c-.02-.02-.04-.02-.06-.02h-.06l-.02-.02v-.06l.02-.02h.58c.16,0,.29.04.39.1.1.08.14.19.14.31,0,.1-.04.21-.1.27-.08.08-.16.12-.29.12l.12.04.25.41s.04.04.08.04h.06l.02.02v.1l-.02.02h-.35l-.02-.02-.35-.6h-.08v.39s.02.04.02.06c.02.02.04.02.06.02h.06l.02.02v.1l-.02.02h-.6v-.02Zm.58-.72c.08,0,.16-.02.21-.08.04-.04.08-.12.08-.21s-.02-.16-.06-.21c-.04-.06-.1-.08-.19-.08h-.04s-.04.02-.06.02c-.02.02-.02.04-.02.06v.49h.08Z" style="fill:#858585;"/></g></svg>