<?xml version="1.0" encoding="UTF-8"?><svg id="Layer_2" xmlns="http://www.w3.org/2000/svg" width="40.16" height="35.73" viewBox="0 0 40.16 35.73"><g id="Layer_1-2"><g><path d="m20.08,14.24c1.98,0,3.59,1.61,3.59,3.59s-1.61,3.59-3.59,3.59-3.59-1.61-3.59-3.59,1.61-3.59,3.59-3.59" style="fill:#858585;"/><path d="m33.02,11.58c-.42-.14-.85-.28-1.29-.41.07-.3.14-.59.2-.88.98-4.75.34-8.58-1.85-9.84-2.1-1.21-5.52.05-8.98,3.06-.33.29-.67.6-1,.92-.22-.21-.44-.42-.66-.61C15.81.6,12.17-.76,9.99.51c-2.09,1.21-2.71,4.81-1.83,9.31.09.44.18.88.3,1.33-.51.15-1.01.3-1.49.47-4.25,1.48-6.97,3.81-6.97,6.22s2.91,4.98,7.34,6.5c.35.12.71.23,1.09.34-.12.49-.23.97-.31,1.43-.84,4.42-.18,7.94,1.9,9.14,2.16,1.24,5.77-.04,9.3-3.12.28-.24.56-.5.84-.77.36.35.73.68,1.09.99,3.41,2.94,6.78,4.12,8.87,2.91,2.15-1.25,2.85-5.02,1.95-9.61-.07-.35-.15-.71-.24-1.07.25-.08.5-.15.75-.23,4.6-1.52,7.6-3.99,7.6-6.51s-2.8-4.76-7.14-6.25Zm-10.8-6.77c2.96-2.58,5.74-3.6,7-2.87,1.35.77,1.87,3.9,1.02,8.01-.05.26-.11.53-.18.8-1.67-.39-3.48-.67-5.37-.85-1.1-1.57-2.25-3-3.39-4.24.31-.3.62-.58.92-.85Zm-10.37,15.08c.36.69.74,1.39,1.14,2.08.41.7.83,1.39,1.26,2.06-1.32-.15-2.56-.34-3.7-.59.35-1.15.79-2.34,1.3-3.55Zm0-4.04c-.5-1.18-.93-2.35-1.28-3.47,1.15-.26,2.37-.47,3.64-.62-.42.66-.83,1.33-1.23,2.02-.4.69-.77,1.38-1.13,2.08Zm.91,2.02c.52-1.08,1.09-2.16,1.71-3.24.62-1.08,1.27-2.11,1.95-3.1,1.19-.09,2.42-.14,3.66-.14s2.47.05,3.66.14c.66.98,1.31,2.01,1.93,3.09.63,1.09,1.21,2.16,1.73,3.22-.52,1.08-1.1,2.16-1.73,3.25-.63,1.09-1.27,2.13-1.93,3.11-1.19.09-2.42.13-3.68.13s-2.47-.04-3.63-.12c-.68-.99-1.34-2.04-1.96-3.11-.62-1.07-1.19-2.16-1.71-3.23Zm14.4,4.08c.41-.71.8-1.42,1.16-2.13.54,1.22.99,2.41,1.35,3.53-1.16.26-2.42.48-3.75.64.42-.66.83-1.34,1.23-2.04Zm1.15-6.1c-.36-.69-.75-1.39-1.16-2.09-.4-.69-.81-1.36-1.22-2.01,1.28.16,2.51.38,3.66.64-.35,1.11-.78,2.27-1.29,3.46Zm-8.22-8.97c.79.86,1.58,1.81,2.36,2.85-.79-.04-1.58-.06-2.38-.06s-1.58.02-2.36.06c.78-1.03,1.58-1.99,2.38-2.85ZM10.85,1.99c1.34-.78,4.32.33,7.45,3.11.2.18.4.36.6.56-1.17,1.25-2.32,2.68-3.42,4.23-1.89.18-3.7.46-5.36.83-.1-.42-.2-.83-.28-1.24-.75-3.86-.25-6.77,1.01-7.5Zm-1.96,21.02c-.34-.1-.67-.2-.99-.31-1.96-.67-3.58-1.54-4.69-2.49-1-.85-1.5-1.7-1.5-2.39,0-1.46,2.18-3.33,5.82-4.6.44-.15.9-.3,1.38-.44.5,1.64,1.16,3.34,1.96,5.07-.81,1.75-1.47,3.49-1.98,5.14Zm9.3,7.82c-1.56,1.36-3.12,2.33-4.49,2.82-1.24.44-2.22.45-2.82.1-1.27-.73-1.79-3.55-1.08-7.33.08-.43.18-.88.29-1.33,1.65.36,3.47.63,5.41.78,1.11,1.56,2.28,3,3.45,4.26-.26.25-.51.48-.77.7Zm1.96-1.94c-.81-.88-1.62-1.85-2.42-2.89.77.03,1.55.05,2.35.05s1.63-.02,2.42-.06c-.78,1.06-1.57,2.04-2.36,2.9Zm10.42,2.39c-.24,1.29-.72,2.15-1.32,2.49-1.27.73-3.97-.22-6.89-2.73-.34-.29-.67-.6-1.01-.92,1.13-1.24,2.26-2.68,3.37-4.27,1.94-.17,3.78-.45,5.44-.84.08.33.15.66.22.97.4,2.03.46,3.87.19,5.3Zm1.46-8.57c-.22.07-.44.14-.68.21-.51-1.61-1.19-3.32-2.03-5.09.8-1.73,1.46-3.41,1.96-5.01.41.12.81.24,1.19.38,3.72,1.28,5.98,3.17,5.98,4.63,0,1.55-2.45,3.57-6.42,4.88Z" style="fill:#858585;"/></g></g></svg>