<?xml version="1.0" encoding="UTF-8"?><svg id="Layer_2" xmlns="http://www.w3.org/2000/svg" width="52.12" height="39.09" viewBox="0 0 52.12 39.09"><g id="Layer_1-2"><path d="m44.88,22.47c-1.82,0-3.4.45-4.72,1.09-.49-.96-.97-1.82-1.06-2.45-.1-.73-.21-1.18-.1-2.06.11-.88.63-2.12.62-2.22s-.11-.54-1.16-.55c-1.05,0-1.95.2-2.06.48-.1.28-.3.9-.44,1.55-.18.95-2.09,4.35-3.19,6.13-.35-.69-.66-1.3-.72-1.79-.1-.73-.21-1.18-.1-2.06.11-.88.63-2.12.62-2.22,0-.1-.11-.54-1.16-.55-1.05,0-1.95.2-2.06.48-.1.28-.22.92-.44,1.55s-2.76,6.3-3.43,7.77c-.34.75-.64,1.35-.85,1.76h0s0,.03-.04.08c-.18.35-.29.54-.29.54h0c-.14.27-.3.5-.37.5-.06,0-.16-.69.02-1.62.38-1.97,1.29-5.04,1.28-5.14,0-.06.17-.59-.59-.87-.74-.28-1.01.18-1.08.18s-.11.16-.11.16c0,0,.83-3.45-1.58-3.45-1.5,0-3.58,1.65-4.61,3.13-.65.35-2.03,1.1-3.5,1.91-.56.31-1.14.63-1.68.92-.04-.04-.08-.09-.11-.12-2.91-3.11-8.3-5.31-8.07-9.49.09-1.52.61-5.52,10.35-10.38,8.02-3.95,14.39-2.86,15.5-.43,1.58,3.47-3.42,9.9-11.7,10.83-3.16.35-4.82-.87-5.24-1.32-.44-.48-.5-.5-.67-.41-.27.14-.1.57,0,.82.25.65,1.27,1.79,2.99,2.35,1.52.5,5.23.77,9.71-.96,5.02-1.94,8.94-7.34,7.79-11.86C31.48.19,23.87-1.32,16.66,1.24c-4.28,1.52-8.93,3.92-12.27,7.04C.42,12-.21,15.22.05,16.58c.92,4.8,7.54,7.92,10.19,10.23-.13.08-.26.14-.36.2-1.32.66-6.37,3.29-7.63,6.08-1.43,3.16.23,5.43,1.32,5.73,3.4.94,6.89-.75,8.77-3.55,1.88-2.8,1.65-6.44.78-8.1,0-.02-.02-.04-.04-.06.34-.2.69-.41,1.04-.61.68-.4,1.34-.77,1.91-1.08-.32.89-.56,1.94-.68,3.47-.14,1.79.59,4.11,1.55,5.03.43.4.93.41,1.26.41,1.12,0,1.63-.93,2.19-2.04.69-1.35,1.3-2.92,1.3-2.92,0,0-.77,4.25,1.32,4.25.76,0,1.53-.99,1.88-1.49h0s.02-.02.06-.09c.08-.12.12-.2.12-.2v-.02c.3-.53.99-1.74,2.01-3.75,1.31-2.59,2.58-5.83,2.58-5.83,0,0,.11.79.5,2.1.23.77.7,1.62,1.09,2.44-.3.43-.5.67-.5.67h0c-.25.33-.51.69-.81,1.03-1.04,1.24-2.28,2.66-2.45,3.07-.2.49-.15.84.23,1.12.28.21.77.24,1.28.21.93-.07,1.59-.3,1.91-.44.5-.18,1.09-.46,1.65-.87,1.02-.75,1.64-1.83,1.58-3.25-.03-.78-.29-1.56-.6-2.29.1-.13.18-.27.28-.4,1.61-2.35,2.86-4.93,2.86-4.93,0,0,.11.79.5,2.1.19.67.58,1.39.92,2.09-1.51,1.23-2.45,2.66-2.78,3.59-.6,1.73-.13,2.51.75,2.69.4.09.97-.1,1.39-.29.53-.17,1.16-.47,1.76-.9,1.02-.75,2-1.8,1.94-3.22-.03-.65-.2-1.29-.44-1.9,1.29-.53,2.94-.83,5.05-.58,4.53.53,5.43,3.36,5.25,4.55s-1.12,1.84-1.44,2.04-.42.27-.39.41c.04.21.19.2.46.16.37-.07,2.38-.96,2.47-3.15.14-2.8-2.52-5.85-7.23-5.83h0Zm-34.96,11.79c-1.5,1.64-3.6,2.26-4.5,1.73-.97-.56-.59-2.98,1.26-4.71,1.12-1.06,2.57-2.04,3.53-2.64.22-.13.54-.32.93-.56.07-.04.1-.06.1-.06h0c.08-.05.15-.1.23-.14.68,2.48.03,4.66-1.55,6.38h0Zm10.95-7.44c-.52,1.28-1.62,4.54-2.28,4.36-.57-.15-.92-2.63-.11-5.07.41-1.23,1.28-2.69,1.78-3.27.82-.91,1.72-1.22,1.94-.85.28.49-1,4.03-1.32,4.83h0Zm9.03,4.32c-.22.11-.43.19-.52.13-.07-.04.1-.19.1-.19,0,0,1.13-1.22,1.58-1.77.26-.32.56-.7.89-1.13v.12c0,1.46-1.41,2.44-2.04,2.84h0Zm2.55-2.84c-.17-.12-.14-.52.43-1.78.22-.49.74-1.32,1.64-2.11.1.32.17.63.16.93-.01,1.94-1.4,2.67-2.23,2.97h0Z" style="fill:#858585;"/></g></svg>