<?xml version="1.0" encoding="UTF-8"?><svg id="Layer_2" xmlns="http://www.w3.org/2000/svg" width="40.37" height="40.37" viewBox="0 0 40.37 40.37"><g id="Layer_1-2"><path d="m0,0v40.37h40.37V0H0Zm23.07,21.9h-5.25v14.94h-3.73v-14.94h-5.25v-1.65h.03s0-1.65,0-1.65l7.07-.03c3.88,0,7.09,0,7.09.04.04.02.04.76.04,1.66v1.61Zm13.67,11.87c-.65,1.68-2.22,2.82-4.47,3.2-.71.12-2.32.1-3.08-.03-1.61-.3-3.16-1.11-4.11-2.15-.37-.4-1.09-1.48-1.05-1.55l.38-.24,1.51-.88,1.14-.67.26.35c.34.52,1.08,1.23,1.51,1.48,1.31.67,3.07.58,3.94-.2.37-.34.54-.71.54-1.21,0-.47-.07-.68-.3-1.03-.32-.45-.97-.81-2.79-1.61-2.09-.89-2.98-1.46-3.8-2.32-.47-.52-.91-1.34-1.11-2.02-.15-.59-.2-2.02-.06-2.59.43-2.02,1.96-3.43,4.14-3.83.71-.14,2.37-.08,3.07.1l-.02.02c1.03.24,1.81.71,2.52,1.44.37.4.93,1.11.97,1.29,0,.06-1.75,1.24-2.8,1.9-.04.03-.2-.14-.36-.4-.53-.75-1.06-1.07-1.9-1.13-1.21-.08-2.02.55-2.02,1.61,0,.32.06.5.18.77.27.55.78.89,2.34,1.58,2.89,1.24,4.14,2.06,4.9,3.23.86,1.31,1.05,3.37.47,4.92Z" style="fill:#858585;"/></g></svg>